<svg xmlns="http://www.w3.org/2000/svg" viewBox="0 0 16 26">
	<title>Cost icon</title>
	<path d="M7.1 25.66V23.4a10.23 10.23 0 0 1-6.95-3.06l1.51-2.13A9.07 9.07 0 0 0 7.1 21v-7.14C4 13.06.8 12.06.8 8.38c0-3 2.66-5.25 6.3-5.58V.39h2.12v2.45a9.73 9.73 0 0 1 6.16 2.77l-1.48 2a7.83 7.83 0 0 0-4.68-2.29v6.27c3.21.83 6.63 1.94 6.63 5.9 0 3.1-2.13 5.55-6.63 5.91v2.26zM13 17.6c0-1.84-1.66-2.59-3.75-3.2V21c2.64-.38 3.75-1.82 3.75-3.4zM3.72 8.35c0 1.51 1.47 2.16 3.38 2.7V5.29c-2.02.25-3.38 1.44-3.38 3.06z" fill="#ca1237"/>
</svg>
