<svg xmlns="http://www.w3.org/2000/svg" viewBox="0 0 254.23 45.08">
	<g fill="#fff">
		<path d="M1.39 12.31H8L9.39 23c.26 2.56.57 5.13.83 7.69h.15c.45-2.56.91-5.16 1.36-7.69l2.34-10.72h5.43L21.84 23c.45 2.45.91 5.09 1.36 7.69h.15c.26-2.6.57-5.2.83-7.69l1.36-10.72h6.19l-4.08 24.56h-8.22l-1.89-9.74c-.38-1.88-.68-3.92-.91-5.73h-.15c-.26 1.81-.52 3.85-.9 5.73l-1.81 9.74H5.69zm30.03 21.47l3.7-4.45a10 10 0 0 0 5.74 2.38c2 0 2.79-.65 2.79-1.74s-1.25-1.55-3.32-2.38l-3.06-1.28a7.25 7.25 0 0 1-4.94-6.83c0-4.19 3.77-7.62 9.13-7.62a11.81 11.81 0 0 1 8.15 3.28l-3.24 4.08a8.1 8.1 0 0 0-4.91-1.78c-1.58 0-2.56.57-2.56 1.66s1.39 1.59 3.62 2.46l3 1.17c3 1.2 4.79 3.32 4.79 6.71 0 4.15-3.47 7.85-9.58 7.85a14.22 14.22 0 0 1-9.31-3.51zM52.18 25V12.31h6.49v13.43c0 4.38 1.13 6 3.69 6s3.78-1.59 3.78-6V12.31h6.26V25c0 8.38-3.17 12.3-10 12.3S52.18 33.37 52.18 25zm29.27-12.69H97.3v5.44h-9.36v3.84h8V27h-8v4.4h9.74v5.44H81.45zm16 0h6.87L106.88 23c.68 2.6 1.14 5.13 1.81 7.77h.16c.67-2.64 1.16-5.17 1.81-7.77l2.49-10.72h6.64l-7.25 24.53h-7.84zm22.79 0h15.85v5.44h-9.36v3.84h8V27h-8v4.4h9.73v5.44h-16.22zm19.09 0H146l5.43 10.94 2.34 5.51h.15a88.58 88.58 0 0 1-.83-9.35v-7.1h6.19v24.53h-6.64l-5.43-11-2.34-5.47h-.15a92.32 92.32 0 0 1 .83 9.35v7.1h-6.19zm28.15 5.44H161v-5.44h19.47v5.44H174v19.09h-6.49zm12.45 16.03l3.7-4.45a10 10 0 0 0 5.73 2.38c2 0 2.79-.65 2.79-1.74s-1.24-1.55-3.32-2.38l-3.05-1.28a7.24 7.24 0 0 1-4.95-6.83c0-4.19 3.78-7.62 9.13-7.62a11.79 11.79 0 0 1 8.15 3.28l-3.24 4.08a8.1 8.1 0 0 0-4.87-1.78c-1.58 0-2.56.57-2.56 1.66s1.39 1.59 3.62 2.46l3 1.17c3.06 1.2 4.79 3.32 4.79 6.71 0 4.15-3.47 7.85-9.58 7.85a14.19 14.19 0 0 1-9.34-3.51z"/>
		<path d="M236.48 44.14s2.21-.94 3.41-4.58a8.91 8.91 0 0 1 .78 4.5 28.22 28.22 0 0 1-4.19.08zm9.22-7.33c-6.45.89-7.55-12.6-7.55-12.6s2.16 6.9 6.76 6.66c4.76-.25 3.41-7.58 3.41-7.58s4.68 12.53-2.62 13.52zm-29.61-3.08a57 57 0 0 1-6.19 1.47s3.68-2.79 6.43-11.38l2.67 2.39-.49 1.64a12.51 12.51 0 0 1 1.57 3 7.87 7.87 0 0 0-.17-6.92l-.34 1-1-.94-1.78-1.63a22.22 22.22 0 0 1 3.21-6.24l.24.27 2 2.37-.62 1a26.41 26.41 0 0 1 2.59 3.28 15 15 0 0 0-.24-6.26l-.92.87-2.27-2.63a25 25 0 0 1 10-6.4 8.3 8.3 0 0 0-.64.8c-1.27 1.79-2.54 5-1.51 10.2.16.81.43 2 .71 3.17.56 2.38 1.17 5.07 1.39 6.76.44 3.53.09 5.84-1.09 7.06-.82.86-2.15 1.24-4 1.17v-.85a18.86 18.86 0 0 0-.53-4.46l-.46-1.71-.77 1.6c-1.2 2.52-5.32 8.78-10.69 10a18.08 18.08 0 0 0 2.9-8.63z"/>
		<path d="M247 10.48l-.06-.35 6.2-1.23-.1-.69-6.4.8a2.84 2.84 0 0 0-.13-.38l5.84-2.27-.22-.65-6.11 1.88a2.82 2.82 0 0 0-1.14-1.2c-2.34.17-4.44.37-6.37.62l1.22-5.72h-.68l-1.87 5.9-1 .16L237.65 1H237l-2.16 6.66h-.08a7 7 0 0 0-3.39 2.57c-1.11 1.59-2.23 4.46-1.29 9.19.16.79.42 1.93.7 3.14.56 2.4 1.2 5.13 1.42 6.89.5 4 0 6.59-1.45 8.14-1.21 1.26-3.08 1.75-5.71 1.53l-.65-.06.06-.66c0-.48.05-.95.05-1.39a19.84 19.84 0 0 0-.15-2.37 23.18 23.18 0 0 1-7.44 7.75 112.13 112.13 0 0 1 13.69 1.48c.24 0 .49.06.73.08h.25a10.79 10.79 0 0 0 1.64-.08h.26c3.17-.54 5.93-2.89 5.18-8.34-.87-6.47-2-10.6-2.29-13.7-.34-3.78 2.93-9.65 8.76-7a9.35 9.35 0 0 1 1.87 3.05 9 9 0 0 0-.18-4 6.89 6.89 0 0 0 .33-2.21l6.35-.27v-.7zm-6.45 2.33a9.05 9.05 0 0 0-5.51 1.43 7.42 7.42 0 0 0-2.04 2.39 4 4 0 0 1 1.62-3.89 8.4 8.4 0 0 1 6.36-.32c.57.29.12.43-.39.39z"/>
	</g>
</svg>
